<svg width="16" height="17" viewBox="0 0 16 17" fill="none" xmlns="http://www.w3.org/2000/svg">
<path d="M10.0002 15.6666H6.00016C2.38016 15.6666 0.833496 14.12 0.833496 10.5V6.49998C0.833496 2.87998 2.38016 1.33331 6.00016 1.33331H10.0002C13.6202 1.33331 15.1668 2.87998 15.1668 6.49998V10.5C15.1668 14.12 13.6202 15.6666 10.0002 15.6666ZM6.00016 2.33331C2.92683 2.33331 1.8335 3.42665 1.8335 6.49998V10.5C1.8335 13.5733 2.92683 14.6666 6.00016 14.6666H10.0002C13.0735 14.6666 14.1668 13.5733 14.1668 10.5V6.49998C14.1668 3.42665 13.0735 2.33331 10.0002 2.33331H6.00016Z" fill="white"/>
<path d="M8.00024 10.44C7.87357 10.44 7.74691 10.3933 7.64691 10.2933L5.29357 7.93998C5.20058 7.84589 5.14844 7.71894 5.14844 7.58665C5.14844 7.45436 5.20058 7.32741 5.29357 7.23332C5.48691 7.03998 5.80691 7.03998 6.00024 7.23332L8.00024 9.23332L10.0002 7.23332C10.1936 7.03998 10.5136 7.03998 10.7069 7.23332C10.9002 7.42665 10.9002 7.74665 10.7069 7.93998L8.35357 10.2933C8.25357 10.3933 8.1269 10.44 8.00024 10.44Z" fill="white"/>
</svg>
